<svg xmlns="http://www.w3.org/2000/svg" xmlns:xlink="http://www.w3.org/1999/xlink" width="485" zoomAndPan="magnify" viewBox="0 0 363.75 383.999986" height="512" preserveAspectRatio="xMidYMid meet" version="1.0"><defs><g/><clipPath id="3f13d092ac"><path d="M 0 1.808594 L 352 1.808594 L 352 361.558594 L 0 361.558594 Z M 0 1.808594 " clip-rule="nonzero"/></clipPath><clipPath id="6cabbb8d1d"><path d="M 1 0.132812 L 362.785156 0.132812 L 362.785156 370.378906 L 1 370.378906 Z M 1 0.132812 " clip-rule="nonzero"/></clipPath><clipPath id="676b67d72c"><path d="M 0 1.808594 L 352 1.808594 L 352 361.558594 L 0 361.558594 Z M 0 1.808594 " clip-rule="nonzero"/></clipPath><clipPath id="00d36d3e39"><path d="M 60.730469 49.394531 L 322.960938 49.394531 L 322.960938 311.621094 L 60.730469 311.621094 Z M 60.730469 49.394531 " clip-rule="nonzero"/></clipPath><clipPath id="88df8a7a6b"><path d="M 191.84375 49.394531 C 119.433594 49.394531 60.730469 108.09375 60.730469 180.507812 C 60.730469 252.917969 119.433594 311.621094 191.84375 311.621094 C 264.257812 311.621094 322.960938 252.917969 322.960938 180.507812 C 322.960938 108.09375 264.257812 49.394531 191.84375 49.394531 Z M 191.84375 49.394531 " clip-rule="nonzero"/></clipPath><clipPath id="0ac0256ac5"><path d="M 230 187 L 245 187 L 245 197 L 230 197 Z M 230 187 " clip-rule="nonzero"/></clipPath><clipPath id="a9b404a8f6"><path d="M 103.457031 155.8125 L 103.457031 247.875 C 103.457031 276.019531 126.277344 298.839844 154.421875 298.839844 L 229.269531 298.839844 C 257.414062 298.839844 280.234375 276.019531 280.234375 247.875 L 280.234375 155.8125 C 280.234375 127.664062 257.414062 104.847656 229.269531 104.847656 L 154.421875 104.847656 C 126.277344 104.847656 103.457031 127.664062 103.457031 155.8125 Z M 103.457031 155.8125 " clip-rule="nonzero"/></clipPath><clipPath id="fc3b36c4aa"><path d="M 251 187 L 280.335938 187 L 280.335938 202 L 251 202 Z M 251 187 " clip-rule="nonzero"/></clipPath><clipPath id="92a2afdba8"><path d="M 103.457031 155.8125 L 103.457031 247.875 C 103.457031 276.019531 126.277344 298.839844 154.421875 298.839844 L 229.269531 298.839844 C 257.414062 298.839844 280.234375 276.019531 280.234375 247.875 L 280.234375 155.8125 C 280.234375 127.664062 257.414062 104.847656 229.269531 104.847656 L 154.421875 104.847656 C 126.277344 104.847656 103.457031 127.664062 103.457031 155.8125 Z M 103.457031 155.8125 " clip-rule="nonzero"/></clipPath><clipPath id="fc379b7acc"><path d="M 194 105 L 224 105 L 224 134 L 194 134 Z M 194 105 " clip-rule="nonzero"/></clipPath><clipPath id="5042fcd5df"><path d="M 103.457031 155.8125 L 103.457031 247.875 C 103.457031 276.019531 126.277344 298.839844 154.421875 298.839844 L 229.269531 298.839844 C 257.414062 298.839844 280.234375 276.019531 280.234375 247.875 L 280.234375 155.8125 C 280.234375 127.664062 257.414062 104.847656 229.269531 104.847656 L 154.421875 104.847656 C 126.277344 104.847656 103.457031 127.664062 103.457031 155.8125 Z M 103.457031 155.8125 " clip-rule="nonzero"/></clipPath><clipPath id="b67589ff08"><path d="M 158 105 L 188 105 L 188 134 L 158 134 Z M 158 105 " clip-rule="nonzero"/></clipPath><clipPath id="429a7232c8"><path d="M 103.457031 155.8125 L 103.457031 247.875 C 103.457031 276.019531 126.277344 298.839844 154.421875 298.839844 L 229.269531 298.839844 C 257.414062 298.839844 280.234375 276.019531 280.234375 247.875 L 280.234375 155.8125 C 280.234375 127.664062 257.414062 104.847656 229.269531 104.847656 L 154.421875 104.847656 C 126.277344 104.847656 103.457031 127.664062 103.457031 155.8125 Z M 103.457031 155.8125 " clip-rule="nonzero"/></clipPath><clipPath id="e05e8b22bb"><path d="M 139 161 L 153 161 L 153 173 L 139 173 Z M 139 161 " clip-rule="nonzero"/></clipPath><clipPath id="d192d8d676"><path d="M 103.457031 155.8125 L 103.457031 247.875 C 103.457031 276.019531 126.277344 298.839844 154.421875 298.839844 L 229.269531 298.839844 C 257.414062 298.839844 280.234375 276.019531 280.234375 247.875 L 280.234375 155.8125 C 280.234375 127.664062 257.414062 104.847656 229.269531 104.847656 L 154.421875 104.847656 C 126.277344 104.847656 103.457031 127.664062 103.457031 155.8125 Z M 103.457031 155.8125 " clip-rule="nonzero"/></clipPath><clipPath id="8d395eddfa"><path d="M 103.457031 161 L 133 161 L 133 180 L 103.457031 180 Z M 103.457031 161 " clip-rule="nonzero"/></clipPath><clipPath id="b8b72c5032"><path d="M 103.457031 155.8125 L 103.457031 247.875 C 103.457031 276.019531 126.277344 298.839844 154.421875 298.839844 L 229.269531 298.839844 C 257.414062 298.839844 280.234375 276.019531 280.234375 247.875 L 280.234375 155.8125 C 280.234375 127.664062 257.414062 104.847656 229.269531 104.847656 L 154.421875 104.847656 C 126.277344 104.847656 103.457031 127.664062 103.457031 155.8125 Z M 103.457031 155.8125 " clip-rule="nonzero"/></clipPath><clipPath id="abcfaf86e8"><path d="M 103.457031 173 L 133 173 L 133 298.960938 L 103.457031 298.960938 Z M 103.457031 173 " clip-rule="nonzero"/></clipPath><clipPath id="e45047ae8c"><path d="M 103.457031 155.8125 L 103.457031 247.875 C 103.457031 276.019531 126.277344 298.839844 154.421875 298.839844 L 229.269531 298.839844 C 257.414062 298.839844 280.234375 276.019531 280.234375 247.875 L 280.234375 155.8125 C 280.234375 127.664062 257.414062 104.847656 229.269531 104.847656 L 154.421875 104.847656 C 126.277344 104.847656 103.457031 127.664062 103.457031 155.8125 Z M 103.457031 155.8125 " clip-rule="nonzero"/></clipPath><clipPath id="e8e21b86fa"><path d="M 139 173 L 153 173 L 153 298.960938 L 139 298.960938 Z M 139 173 " clip-rule="nonzero"/></clipPath><clipPath id="04f646bef1"><path d="M 103.457031 155.8125 L 103.457031 247.875 C 103.457031 276.019531 126.277344 298.839844 154.421875 298.839844 L 229.269531 298.839844 C 257.414062 298.839844 280.234375 276.019531 280.234375 247.875 L 280.234375 155.8125 C 280.234375 127.664062 257.414062 104.847656 229.269531 104.847656 L 154.421875 104.847656 C 126.277344 104.847656 103.457031 127.664062 103.457031 155.8125 Z M 103.457031 155.8125 " clip-rule="nonzero"/></clipPath><clipPath id="e9662c8d9d"><path d="M 158 122 L 188 122 L 188 298.960938 L 158 298.960938 Z M 158 122 " clip-rule="nonzero"/></clipPath><clipPath id="6012a469e7"><path d="M 103.457031 155.8125 L 103.457031 247.875 C 103.457031 276.019531 126.277344 298.839844 154.421875 298.839844 L 229.269531 298.839844 C 257.414062 298.839844 280.234375 276.019531 280.234375 247.875 L 280.234375 155.8125 C 280.234375 127.664062 257.414062 104.847656 229.269531 104.847656 L 154.421875 104.847656 C 126.277344 104.847656 103.457031 127.664062 103.457031 155.8125 Z M 103.457031 155.8125 " clip-rule="nonzero"/></clipPath><clipPath id="5cba9137a7"><path d="M 194 122 L 224 122 L 224 298.960938 L 194 298.960938 Z M 194 122 " clip-rule="nonzero"/></clipPath><clipPath id="f32fc76d17"><path d="M 103.457031 155.8125 L 103.457031 247.875 C 103.457031 276.019531 126.277344 298.839844 154.421875 298.839844 L 229.269531 298.839844 C 257.414062 298.839844 280.234375 276.019531 280.234375 247.875 L 280.234375 155.8125 C 280.234375 127.664062 257.414062 104.847656 229.269531 104.847656 L 154.421875 104.847656 C 126.277344 104.847656 103.457031 127.664062 103.457031 155.8125 Z M 103.457031 155.8125 " clip-rule="nonzero"/></clipPath><clipPath id="aefe502302"><path d="M 251 197 L 280.335938 197 L 280.335938 298.960938 L 251 298.960938 Z M 251 197 " clip-rule="nonzero"/></clipPath><clipPath id="3955b41a35"><path d="M 103.457031 155.8125 L 103.457031 247.875 C 103.457031 276.019531 126.277344 298.839844 154.421875 298.839844 L 229.269531 298.839844 C 257.414062 298.839844 280.234375 276.019531 280.234375 247.875 L 280.234375 155.8125 C 280.234375 127.664062 257.414062 104.847656 229.269531 104.847656 L 154.421875 104.847656 C 126.277344 104.847656 103.457031 127.664062 103.457031 155.8125 Z M 103.457031 155.8125 " clip-rule="nonzero"/></clipPath><clipPath id="e59fea2cfa"><path d="M 230 197 L 245 197 L 245 298.960938 L 230 298.960938 Z M 230 197 " clip-rule="nonzero"/></clipPath><clipPath id="8c8fe13bac"><path d="M 103.457031 155.8125 L 103.457031 247.875 C 103.457031 276.019531 126.277344 298.839844 154.421875 298.839844 L 229.269531 298.839844 C 257.414062 298.839844 280.234375 276.019531 280.234375 247.875 L 280.234375 155.8125 C 280.234375 127.664062 257.414062 104.847656 229.269531 104.847656 L 154.421875 104.847656 C 126.277344 104.847656 103.457031 127.664062 103.457031 155.8125 Z M 103.457031 155.8125 " clip-rule="nonzero"/></clipPath></defs><g clip-path="url(#3f13d092ac)"><path fill="#003456" d="M 191.832031 361.570312 C 257.914062 361.570312 311.019531 337.8125 345.558594 292.691406 L 351.148438 285.304688 L 267.097656 210.238281 L 260.511719 218.625 C 242.140625 241.984375 221.976562 252.964844 197.421875 252.964844 C 157.292969 252.964844 131.339844 225.011719 131.339844 181.6875 C 131.339844 138.367188 157.292969 110.414062 197.421875 110.414062 C 222.175781 110.414062 242.140625 121.394531 260.511719 144.753906 L 267.097656 153.140625 L 351.148438 78.070312 L 345.558594 70.683594 C 310.820312 25.566406 257.714844 1.808594 191.832031 1.808594 C 81.027344 1.808594 0.769531 77.472656 0.769531 181.6875 C 0.769531 285.90625 81.027344 361.570312 191.832031 361.570312 Z M 191.832031 361.570312 " fill-opacity="1" fill-rule="nonzero"/></g><g clip-path="url(#6cabbb8d1d)"><path fill="#001f33" d="M 198.199219 370.378906 C 266.207031 370.378906 320.863281 345.925781 356.40625 299.492188 L 362.160156 291.890625 L 275.660156 214.636719 L 268.878906 223.265625 C 249.976562 247.304688 229.226562 258.605469 203.953125 258.605469 C 162.65625 258.605469 135.945312 229.839844 135.945312 185.253906 C 135.945312 140.667969 162.65625 111.902344 203.953125 111.902344 C 229.429688 111.902344 249.976562 123.203125 268.878906 147.242188 L 275.660156 155.875 L 362.160156 78.617188 L 356.40625 71.015625 C 320.65625 24.582031 266.003906 0.132812 198.199219 0.132812 C 84.167969 0.132812 1.570312 78.003906 1.570312 185.253906 C 1.570312 292.507812 84.167969 370.378906 198.199219 370.378906 Z M 198.199219 370.378906 " fill-opacity="1" fill-rule="nonzero"/></g><g clip-path="url(#676b67d72c)"><path fill="#003456" d="M 191.832031 361.570312 C 257.914062 361.570312 311.019531 337.8125 345.558594 292.691406 L 351.148438 285.304688 L 267.097656 210.238281 L 260.511719 218.625 C 242.140625 241.984375 221.976562 252.964844 197.421875 252.964844 C 157.292969 252.964844 131.339844 225.011719 131.339844 181.6875 C 131.339844 138.367188 157.292969 110.414062 197.421875 110.414062 C 222.175781 110.414062 242.140625 121.394531 260.511719 144.753906 L 267.097656 153.140625 L 351.148438 78.070312 L 345.558594 70.683594 C 310.820312 25.566406 257.714844 1.808594 191.832031 1.808594 C 81.027344 1.808594 0.769531 77.472656 0.769531 181.6875 C 0.769531 285.90625 81.027344 361.570312 191.832031 361.570312 Z M 191.832031 361.570312 " fill-opacity="1" fill-rule="nonzero"/></g><g clip-path="url(#00d36d3e39)"><g clip-path="url(#88df8a7a6b)"><path fill="#e9eef3" d="M 60.730469 49.394531 L 322.960938 49.394531 L 322.960938 311.621094 L 60.730469 311.621094 Z M 60.730469 49.394531 " fill-opacity="1" fill-rule="nonzero"/></g></g><g clip-path="url(#0ac0256ac5)"><g clip-path="url(#a9b404a8f6)"><path fill="#1f628e" d="M 244.507812 187.5 L 244.507812 190.546875 L 230.054688 196.054688 L 230.054688 193.015625 Z M 244.507812 187.5 " fill-opacity="1" fill-rule="nonzero"/></g></g><g clip-path="url(#fc3b36c4aa)"><g clip-path="url(#92a2afdba8)"><path fill="#1f628e" d="M 280.246094 198.632812 L 280.246094 201.667969 L 251.054688 190.546875 L 251.054688 187.5 Z M 280.246094 198.632812 " fill-opacity="1" fill-rule="nonzero"/></g></g><g clip-path="url(#fc379b7acc)"><g clip-path="url(#5042fcd5df)"><path fill="#1f628e" d="M 223.507812 123.96875 L 223.507812 133.265625 L 194.316406 114.328125 L 194.316406 105.023438 Z M 223.507812 123.96875 " fill-opacity="1" fill-rule="nonzero"/></g></g><g clip-path="url(#b67589ff08)"><g clip-path="url(#429a7232c8)"><path fill="#1f628e" d="M 187.769531 105.023438 L 187.769531 114.328125 L 158.578125 133.265625 L 158.578125 123.96875 Z M 187.769531 105.023438 " fill-opacity="1" fill-rule="nonzero"/></g></g><g clip-path="url(#e05e8b22bb)"><g clip-path="url(#d192d8d676)"><path fill="#1f628e" d="M 152.03125 167.148438 L 152.03125 172.222656 L 139.1875 166.230469 L 139.1875 161.15625 Z M 152.03125 167.148438 " fill-opacity="1" fill-rule="nonzero"/></g></g><g clip-path="url(#8d395eddfa)"><g clip-path="url(#b8b72c5032)"><path fill="#1f628e" d="M 132.640625 161.15625 L 132.640625 166.230469 L 103.457031 179.847656 L 103.457031 174.777344 Z M 132.640625 161.15625 " fill-opacity="1" fill-rule="nonzero"/></g></g><g clip-path="url(#abcfaf86e8)"><g clip-path="url(#e45047ae8c)"><path fill="#1f628e" d="M 103.457031 187.074219 L 103.457031 298.6875 L 132.640625 298.6875 L 132.640625 173.472656 Z M 116.160156 232.269531 L 109.613281 232.269531 L 109.613281 225.71875 L 116.160156 225.71875 Z M 128.433594 196.070312 L 121.886719 196.070312 L 121.886719 189.523438 L 128.433594 189.523438 Z M 128.433594 196.070312 " fill-opacity="1" fill-rule="nonzero"/></g></g><g clip-path="url(#e8e21b86fa)"><g clip-path="url(#04f646bef1)"><path fill="#1f628e" d="M 152.03125 179.449219 L 152.03125 298.6875 L 139.1875 298.6875 L 139.1875 173.457031 Z M 152.03125 179.449219 " fill-opacity="1" fill-rule="nonzero"/></g></g><g clip-path="url(#e9662c8d9d)"><g clip-path="url(#6012a469e7)"><path fill="#1f628e" d="M 158.578125 141.074219 L 158.578125 298.6875 L 187.753906 298.6875 L 187.753906 122.136719 Z M 170.035156 153.015625 L 163.488281 153.015625 L 163.488281 146.46875 L 170.035156 146.46875 Z M 181.203125 240.582031 L 174.65625 240.582031 L 174.65625 234.035156 L 181.203125 234.035156 Z M 181.203125 200.480469 L 174.65625 200.480469 L 174.65625 193.933594 L 181.203125 193.933594 Z M 181.203125 200.480469 " fill-opacity="1" fill-rule="nonzero"/></g></g><g clip-path="url(#5cba9137a7)"><g clip-path="url(#f32fc76d17)"><path fill="#1f628e" d="M 194.300781 122.136719 L 194.300781 298.6875 L 223.492188 298.6875 L 223.492188 141.074219 Z M 208.210938 221.757812 L 201.664062 221.757812 L 201.664062 215.210938 L 208.210938 215.210938 Z M 208.210938 155.46875 L 201.664062 155.46875 L 201.664062 148.921875 L 208.210938 148.921875 Z M 218.320312 181.953125 L 211.773438 181.953125 L 211.773438 175.40625 L 218.320312 175.40625 Z M 218.320312 181.953125 " fill-opacity="1" fill-rule="nonzero"/></g></g><g clip-path="url(#aefe502302)"><g clip-path="url(#3955b41a35)"><path fill="#1f628e" d="M 251.054688 197.550781 L 251.054688 298.6875 L 280.230469 298.6875 L 280.230469 208.664062 Z M 264.289062 221.757812 L 257.742188 221.757812 L 257.742188 215.210938 L 264.289062 215.210938 Z M 274.519531 240.582031 L 267.972656 240.582031 L 267.972656 234.035156 L 274.519531 234.035156 Z M 274.519531 240.582031 " fill-opacity="1" fill-rule="nonzero"/></g></g><g clip-path="url(#e59fea2cfa)"><g clip-path="url(#8c8fe13bac)"><path fill="#1f628e" d="M 244.507812 197.550781 L 244.507812 298.6875 L 230.054688 298.6875 L 230.054688 203.058594 Z M 244.507812 197.550781 " fill-opacity="1" fill-rule="nonzero"/></g></g><g fill="#efefef" fill-opacity="1"><g transform="translate(70.380722, 302.491987)"><g><path d="M 28.640625 -17.65625 C 28.984375 -17.457031 29.171875 -17.34375 29.203125 -17.3125 C 29.484375 -17.21875 29.617188 -16.6875 29.609375 -15.71875 C 29.597656 -14.757812 29.453125 -14.210938 29.171875 -14.078125 C 28.953125 -13.941406 28.453125 -13.453125 27.671875 -12.609375 C 26.890625 -11.765625 26.367188 -11.25 26.109375 -11.0625 C 25.734375 -10.769531 25.5625 -10.523438 25.59375 -10.328125 C 25.632812 -10.140625 25.914062 -9.828125 26.4375 -9.390625 C 27.132812 -8.796875 27.535156 -8.222656 27.640625 -7.671875 C 27.753906 -7.117188 27.5625 -6.65625 27.0625 -6.28125 C 26.351562 -5.78125 25.457031 -5.988281 24.375 -6.90625 C 23.894531 -7.3125 23.546875 -7.488281 23.328125 -7.4375 C 23.117188 -7.382812 22.734375 -7.019531 22.171875 -6.34375 C 21.390625 -5.46875 20.9375 -4.898438 20.8125 -4.640625 C 20.6875 -4.378906 20.671875 -4.085938 20.765625 -3.765625 C 20.921875 -3.460938 21.5625 -3.15625 22.6875 -2.84375 C 25.09375 -2.238281 25.710938 -1.578125 24.546875 -0.859375 C 24.378906 -0.710938 24.195312 -0.609375 24 -0.546875 C 23.507812 -0.347656 22.785156 -0.175781 21.828125 -0.03125 C 20.878906 0.101562 20.332031 0.109375 20.1875 -0.015625 C 20.039062 -0.140625 18.554688 -0.0390625 15.734375 0.28125 C 14.566406 0.40625 12.832031 0.539062 10.53125 0.6875 L 7.0625 0.9375 L 6.234375 0.078125 C 5.703125 -0.429688 5.375 -1.007812 5.25 -1.65625 C 5.132812 -2.3125 5.179688 -2.691406 5.390625 -2.796875 C 5.597656 -2.898438 5.96875 -3.1875 6.5 -3.65625 C 7.257812 -4.269531 8.335938 -4.445312 9.734375 -4.1875 C 10.742188 -3.96875 11.671875 -3.859375 12.515625 -3.859375 C 13.359375 -3.867188 13.910156 -3.972656 14.171875 -4.171875 C 14.546875 -4.410156 15.5625 -5.445312 17.21875 -7.28125 L 19.6875 -10.03125 L 18.921875 -10.125 C 18.441406 -10.207031 18.132812 -10.222656 18 -10.171875 C 17.800781 -10.046875 17.503906 -10.171875 17.109375 -10.546875 C 16.722656 -10.929688 16.421875 -11.359375 16.203125 -11.828125 C 15.765625 -12.835938 16.207031 -13.429688 17.53125 -13.609375 C 18.1875 -13.691406 19.023438 -13.503906 20.046875 -13.046875 C 21.078125 -12.597656 21.640625 -12.378906 21.734375 -12.390625 C 21.828125 -12.410156 22.191406 -12.773438 22.828125 -13.484375 C 24.578125 -15.390625 25.835938 -16.625 26.609375 -17.1875 C 27.390625 -17.757812 28.066406 -17.914062 28.640625 -17.65625 Z M 49.859375 -3.84375 C 50.253906 -3.59375 50.507812 -3.382812 50.625 -3.21875 C 50.738281 -3.0625 50.90625 -2.8125 51.125 -2.46875 C 52.101562 -1.28125 52.59375 -0.0351562 52.59375 1.265625 C 52.601562 1.585938 52.4375 1.953125 52.09375 2.359375 C 51.75 2.765625 51.40625 2.957031 51.0625 2.9375 C 50.65625 2.976562 50.1875 2.84375 49.65625 2.53125 C 49.132812 2.21875 48.742188 1.882812 48.484375 1.53125 C 48.222656 1.070312 48.023438 0.09375 47.890625 -1.40625 C 47.753906 -2.914062 47.804688 -3.753906 48.046875 -3.921875 C 48.523438 -4.210938 49.128906 -4.1875 49.859375 -3.84375 Z M 46.140625 -11.640625 C 46.984375 -11.390625 47.425781 -10.4375 47.46875 -8.78125 C 47.507812 -8.507812 47.425781 -8.21875 47.21875 -7.90625 C 47.019531 -7.59375 46.5625 -6.976562 45.84375 -6.0625 C 44.382812 -4.1875 43.457031 -2.6875 43.0625 -1.5625 C 43 -1.320312 43.054688 -1.101562 43.234375 -0.90625 C 43.410156 -0.71875 43.96875 -0.269531 44.90625 0.4375 C 45.769531 1.113281 46.300781 1.570312 46.5 1.8125 C 46.707031 2.0625 46.820312 2.3125 46.84375 2.5625 C 46.851562 2.988281 46.625 3.375 46.15625 3.71875 C 45.695312 4.15625 45.242188 4.359375 44.796875 4.328125 C 44.359375 4.304688 43.851562 4.054688 43.28125 3.578125 C 42.476562 2.890625 41.953125 2.523438 41.703125 2.484375 C 41.460938 2.441406 41.179688 2.671875 40.859375 3.171875 C 40.492188 3.703125 40.242188 4.109375 40.109375 4.390625 C 39.984375 4.679688 39.804688 5.054688 39.578125 5.515625 C 39.359375 5.972656 39.15625 6.585938 38.96875 7.359375 L 38.453125 9.609375 C 38.148438 10.785156 38.023438 11.453125 38.078125 11.609375 C 38.140625 11.691406 38.320312 11.613281 38.625 11.375 C 38.675781 11.3125 38.78125 11.210938 38.9375 11.078125 C 39.375 10.796875 39.882812 10.441406 40.46875 10.015625 C 41.0625 9.597656 41.5625 9.210938 41.96875 8.859375 C 42.382812 8.515625 42.757812 8.4375 43.09375 8.625 C 44.09375 9.101562 44.554688 10.019531 44.484375 11.375 C 44.421875 12.726562 43.847656 13.664062 42.765625 14.1875 C 42.328125 14.363281 41.753906 14.675781 41.046875 15.125 C 40.347656 15.570312 39.75 15.882812 39.25 16.0625 C 38.3125 16.226562 37.71875 16.484375 37.46875 16.828125 C 37.21875 17.179688 37.125 17.890625 37.1875 18.953125 C 37.289062 20.753906 37.460938 22.382812 37.703125 23.84375 C 37.941406 25.300781 38.210938 26.15625 38.515625 26.40625 C 38.671875 26.539062 39.101562 26.546875 39.8125 26.421875 C 40.519531 26.304688 40.957031 26.15625 41.125 25.96875 C 41.257812 25.8125 41.570312 25.617188 42.0625 25.390625 C 42.550781 25.160156 42.835938 25.078125 42.921875 25.140625 C 42.992188 25.210938 42.894531 25.570312 42.625 26.21875 C 42.363281 26.875 42.109375 27.347656 41.859375 27.640625 C 41.515625 28.046875 41.328125 28.503906 41.296875 29.015625 C 41.273438 29.429688 41.210938 29.710938 41.109375 29.859375 C 41.003906 30.003906 40.644531 30.28125 40.03125 30.6875 C 39.226562 31.300781 38.660156 31.804688 38.328125 32.203125 C 38.066406 32.503906 37.859375 32.664062 37.703125 32.6875 C 37.546875 32.707031 37.21875 32.65625 36.71875 32.53125 C 36.039062 32.363281 35.351562 31.914062 34.65625 31.1875 C 34.226562 30.78125 33.921875 30.441406 33.734375 30.171875 C 33.546875 29.898438 33.363281 29.40625 33.1875 28.6875 C 32.9375 27.832031 32.71875 26.484375 32.53125 24.640625 C 32.351562 22.796875 32.300781 21.347656 32.375 20.296875 C 32.382812 19.410156 32.296875 18.890625 32.109375 18.734375 C 31.921875 18.578125 30.941406 18.5625 29.171875 18.6875 C 26.210938 18.875 24.476562 18.753906 23.96875 18.328125 C 23.757812 18.140625 23.660156 18.007812 23.671875 17.9375 C 23.691406 17.863281 23.800781 17.789062 24 17.71875 C 24.394531 17.59375 24.875 17.488281 25.4375 17.40625 C 26.132812 17.300781 27.285156 17.015625 28.890625 16.546875 C 30.492188 16.078125 31.523438 15.707031 31.984375 15.4375 C 32.566406 15.1875 32.894531 14.847656 32.96875 14.421875 L 33.375 12.390625 C 33.570312 11.398438 33.765625 10.519531 33.953125 9.75 C 34.023438 9.488281 34.070312 9.265625 34.09375 9.078125 C 34.125 8.890625 34.132812 8.742188 34.125 8.640625 C 34.113281 8.546875 34.082031 8.503906 34.03125 8.515625 C 33.882812 8.515625 33.039062 9.179688 31.5 10.515625 C 30.175781 11.640625 29.070312 12.4375 28.1875 12.90625 C 27.300781 13.382812 26.304688 13.726562 25.203125 13.9375 C 24.484375 14.070312 23.816406 14.078125 23.203125 13.953125 C 22.597656 13.828125 22.222656 13.65625 22.078125 13.4375 C 21.984375 13.28125 22.039062 12.800781 22.25 12 C 22.40625 11.4375 22.472656 10.445312 22.453125 9.03125 C 22.429688 7.613281 22.335938 6.835938 22.171875 6.703125 C 22.117188 6.660156 21.5625 6.769531 20.5 7.03125 C 19.445312 7.300781 18.769531 7.492188 18.46875 7.609375 C 18.21875 7.765625 17.273438 7.925781 15.640625 8.09375 C 14.015625 8.257812 13.144531 8.296875 13.03125 8.203125 C 12.5 7.753906 14.472656 6.582031 18.953125 4.6875 C 20.617188 3.96875 22.097656 3.050781 23.390625 1.9375 C 24.679688 0.832031 26.238281 -0.882812 28.0625 -3.21875 L 30.328125 -6.015625 L 31.109375 -6.046875 C 31.679688 -6.066406 32.550781 -5.921875 33.71875 -5.609375 C 34.894531 -5.296875 35.859375 -4.929688 36.609375 -4.515625 C 37.617188 -4.023438 38.265625 -3.738281 38.546875 -3.65625 C 38.835938 -3.582031 39.109375 -3.691406 39.359375 -3.984375 C 39.671875 -4.359375 39.984375 -4.921875 40.296875 -5.671875 C 40.609375 -6.429688 41.363281 -7.566406 42.5625 -9.078125 C 43.757812 -10.597656 44.503906 -11.351562 44.796875 -11.34375 C 45.097656 -11.34375 45.3125 -11.414062 45.4375 -11.5625 C 45.5625 -11.71875 45.796875 -11.742188 46.140625 -11.640625 Z M 36.828125 0.453125 C 36.972656 0.117188 37.035156 -0.128906 37.015625 -0.296875 C 37.003906 -0.472656 36.90625 -0.640625 36.71875 -0.796875 C 36.238281 -1.265625 35.46875 -1.738281 34.40625 -2.21875 C 33.351562 -2.695312 32.65625 -2.894531 32.3125 -2.8125 C 32.144531 -2.769531 31.640625 -2.25 30.796875 -1.25 C 29.953125 -0.257812 29.488281 0.335938 29.40625 0.546875 C 29.351562 0.773438 29.785156 1.023438 30.703125 1.296875 C 32.617188 1.828125 33.925781 2.660156 34.625 3.796875 C 34.945312 4.296875 35.175781 4.546875 35.3125 4.546875 C 35.445312 4.546875 35.679688 4.003906 36.015625 2.921875 C 36.347656 1.847656 36.617188 1.023438 36.828125 0.453125 Z M 31.796875 5.921875 C 32.273438 5.359375 32.421875 4.96875 32.234375 4.75 C 31.890625 4.332031 31.097656 3.894531 29.859375 3.4375 C 29.054688 3.125 28.5625 2.84375 28.375 2.59375 C 28.1875 2.300781 27.9375 2.253906 27.625 2.453125 C 27.320312 2.660156 26.703125 3.203125 25.765625 4.078125 C 24.765625 4.984375 24.203125 5.484375 24.078125 5.578125 C 23.953125 5.671875 24.078125 6.160156 24.453125 7.046875 C 24.785156 7.898438 25.195312 8.554688 25.6875 9.015625 C 26.1875 9.472656 26.679688 9.679688 27.171875 9.640625 C 27.453125 9.585938 28.140625 9.132812 29.234375 8.28125 C 30.328125 7.425781 31.179688 6.640625 31.796875 5.921875 Z M 31.796875 5.921875 "/></g></g></g><g fill="#efefef" fill-opacity="1"><g transform="translate(132.235159, 347.614653)"><g><path d="M 32 -26.609375 C 32.09375 -26.734375 32.351562 -26.691406 32.78125 -26.484375 C 33.21875 -26.273438 33.691406 -25.957031 34.203125 -25.53125 C 34.722656 -25.113281 35.015625 -24.753906 35.078125 -24.453125 C 35.335938 -23.234375 35.257812 -22.21875 34.84375 -21.40625 C 34.53125 -20.863281 34.425781 -20.472656 34.53125 -20.234375 C 34.632812 -19.992188 35.023438 -19.769531 35.703125 -19.5625 C 36.410156 -19.320312 37.070312 -19.054688 37.6875 -18.765625 C 38.3125 -18.472656 38.726562 -18.378906 38.9375 -18.484375 C 39.1875 -18.554688 39.789062 -18.375 40.75 -17.9375 C 41.71875 -17.507812 42.175781 -17.195312 42.125 -17 C 42.101562 -16.894531 42.1875 -16.820312 42.375 -16.78125 C 42.5625 -16.738281 42.929688 -16.285156 43.484375 -15.421875 C 43.816406 -14.828125 44.007812 -14.425781 44.0625 -14.21875 C 44.125 -14.007812 44.070312 -13.765625 43.90625 -13.484375 C 43.675781 -12.992188 43.492188 -12.546875 43.359375 -12.140625 C 43.222656 -11.734375 42.847656 -10.882812 42.234375 -9.59375 C 41.628906 -8.3125 41.25 -7.578125 41.09375 -7.390625 C 40.882812 -7.191406 40.757812 -6.988281 40.71875 -6.78125 C 40.65625 -6.539062 40.09375 -5.707031 39.03125 -4.28125 C 38.632812 -3.84375 38.179688 -3.429688 37.671875 -3.046875 C 37.160156 -2.660156 36.804688 -2.488281 36.609375 -2.53125 C 36.429688 -2.570312 36.097656 -2.394531 35.609375 -2 C 34.734375 -1.269531 33.921875 -0.992188 33.171875 -1.171875 C 32.929688 -1.234375 32.863281 -1.46875 32.96875 -1.875 C 33.0625 -2.25 32.953125 -2.835938 32.640625 -3.640625 C 32.335938 -4.441406 32.085938 -4.867188 31.890625 -4.921875 C 31.679688 -4.972656 31.609375 -5.132812 31.671875 -5.40625 C 31.742188 -5.675781 31.695312 -5.828125 31.53125 -5.859375 C 31.382812 -5.898438 31.144531 -5.539062 30.8125 -4.78125 C 30.488281 -4.019531 30.328125 -3.457031 30.328125 -3.09375 C 30.285156 -2.53125 30.171875 -1.867188 29.984375 -1.109375 C 29.804688 -0.359375 29.648438 0.0195312 29.515625 0.03125 C 29.398438 0.03125 29.226562 0.582031 29 1.6875 C 28.769531 2.800781 28.472656 3.847656 28.109375 4.828125 C 27.742188 5.804688 27.34375 7.023438 26.90625 8.484375 C 26.46875 9.941406 26.128906 10.796875 25.890625 11.046875 C 25.648438 11.304688 25.4375 11.59375 25.25 11.90625 C 25.101562 12.207031 24.925781 12.367188 24.71875 12.390625 C 24.519531 12.410156 24.390625 12.269531 24.328125 11.96875 C 24.304688 11.738281 24.191406 11.5625 23.984375 11.4375 C 23.773438 11.3125 23.722656 11.140625 23.828125 10.921875 C 23.941406 10.703125 23.90625 10.394531 23.71875 10 C 23.539062 9.613281 23.570312 9.375 23.8125 9.28125 C 24.050781 9.1875 24.128906 8.921875 24.046875 8.484375 C 23.972656 8.046875 24.1875 6.769531 24.6875 4.65625 C 25.195312 2.550781 25.546875 0.890625 25.734375 -0.328125 C 25.921875 -1.554688 26.265625 -3.414062 26.765625 -5.90625 C 27.273438 -8.394531 27.503906 -9.710938 27.453125 -9.859375 C 27.410156 -10.003906 27.546875 -10.738281 27.859375 -12.0625 C 28.179688 -13.382812 28.46875 -14.703125 28.71875 -16.015625 C 28.863281 -16.960938 28.929688 -17.535156 28.921875 -17.734375 C 28.921875 -17.941406 28.785156 -18.085938 28.515625 -18.171875 C 28.285156 -18.304688 27.820312 -18.347656 27.125 -18.296875 C 26.4375 -18.242188 25.773438 -18.144531 25.140625 -18 C 24.703125 -17.90625 24.289062 -17.90625 23.90625 -18 C 23.320312 -18.132812 23.15625 -17.96875 23.40625 -17.5 C 23.507812 -17.332031 23.460938 -17.082031 23.265625 -16.75 C 23.078125 -16.414062 22.976562 -15.835938 22.96875 -15.015625 C 22.96875 -14.203125 22.9375 -13.382812 22.875 -12.5625 C 22.8125 -11.53125 22.804688 -10.207031 22.859375 -8.59375 C 22.835938 -7.175781 22.441406 -6.269531 21.671875 -5.875 C 21.328125 -5.664062 21.117188 -5.570312 21.046875 -5.59375 C 20.878906 -5.632812 20.671875 -5.894531 20.421875 -6.375 C 20.171875 -6.851562 20.066406 -7.191406 20.109375 -7.390625 C 20.171875 -7.640625 20.160156 -7.925781 20.078125 -8.25 C 19.992188 -8.582031 20.09375 -9.5625 20.375 -11.1875 C 20.65625 -12.820312 20.820312 -14.039062 20.875 -14.84375 C 20.90625 -17.125 20.8125 -18.285156 20.59375 -18.328125 C 20.46875 -18.359375 20.367188 -18.535156 20.296875 -18.859375 C 20.234375 -19.191406 20.265625 -19.484375 20.390625 -19.734375 C 20.628906 -20.117188 21.738281 -20.460938 23.71875 -20.765625 C 25.695312 -21.078125 27.1875 -21.132812 28.1875 -20.9375 C 29.007812 -20.738281 29.53125 -20.75 29.75 -20.96875 C 29.96875 -21.1875 30.203125 -21.863281 30.453125 -23 C 30.722656 -24.320312 30.820312 -25.070312 30.75 -25.25 C 30.6875 -25.425781 30.867188 -25.660156 31.296875 -25.953125 C 31.734375 -26.253906 31.96875 -26.472656 32 -26.609375 Z M 38.703125 -16.078125 C 38.554688 -16.234375 37.847656 -16.515625 36.578125 -16.921875 C 35.304688 -17.328125 34.53125 -17.523438 34.25 -17.515625 C 33.988281 -17.503906 33.789062 -17.210938 33.65625 -16.640625 C 32.34375 -11.609375 31.675781 -8.898438 31.65625 -8.515625 C 31.664062 -8.242188 31.910156 -7.851562 32.390625 -7.34375 C 32.867188 -6.832031 33.234375 -6.546875 33.484375 -6.484375 C 33.984375 -6.367188 34.703125 -6.910156 35.640625 -8.109375 C 36.867188 -9.617188 37.800781 -11.457031 38.4375 -13.625 C 38.695312 -14.59375 38.84375 -15.21875 38.875 -15.5 C 38.914062 -15.78125 38.859375 -15.972656 38.703125 -16.078125 Z M 31.828125 -33.6875 C 31.453125 -34.539062 31.210938 -35.117188 31.109375 -35.421875 C 31.003906 -35.734375 31.046875 -36.054688 31.234375 -36.390625 C 31.421875 -36.734375 31.675781 -36.96875 32 -37.09375 C 32.320312 -37.21875 32.566406 -37.257812 32.734375 -37.21875 C 32.910156 -37.175781 33.296875 -36.972656 33.890625 -36.609375 C 35.515625 -35.722656 36.460938 -34.898438 36.734375 -34.140625 C 36.867188 -33.785156 37 -33.097656 37.125 -32.078125 L 37.203125 -30.609375 L 36.6875 -30.015625 C 36.28125 -29.671875 36.0625 -29.425781 36.03125 -29.28125 C 36.019531 -29.226562 36.875 -28.984375 38.59375 -28.546875 C 40.320312 -28.117188 42.082031 -27.707031 43.875 -27.3125 C 45.675781 -26.925781 46.6875 -26.738281 46.90625 -26.75 C 47.289062 -26.84375 47.609375 -26.953125 47.859375 -27.078125 C 48.285156 -27.367188 48.71875 -27.300781 49.15625 -26.875 C 49.34375 -26.71875 49.894531 -26.28125 50.8125 -25.5625 C 51.445312 -25.039062 51.820312 -24.679688 51.9375 -24.484375 C 52.0625 -24.296875 52.101562 -24.039062 52.0625 -23.71875 C 52.09375 -23.207031 51.867188 -22.796875 51.390625 -22.484375 C 50.316406 -21.648438 49.546875 -21.410156 49.078125 -21.765625 C 48.429688 -22.242188 46.523438 -23.132812 43.359375 -24.4375 C 42.285156 -24.84375 41.460938 -25.175781 40.890625 -25.4375 C 40.328125 -25.695312 39.03125 -26.03125 37 -26.4375 C 34.976562 -26.851562 33.703125 -27.132812 33.171875 -27.28125 C 32.640625 -27.425781 32.21875 -27.453125 31.90625 -27.359375 C 31.601562 -27.273438 31.257812 -27.257812 30.875 -27.3125 C 29.695312 -27.445312 28.722656 -27.410156 27.953125 -27.203125 C 27.679688 -27.117188 26.859375 -27.148438 25.484375 -27.296875 C 24.304688 -27.398438 23.234375 -27.410156 22.265625 -27.328125 C 21.304688 -27.242188 20.804688 -27.101562 20.765625 -26.90625 C 20.722656 -26.726562 20.609375 -26.609375 20.421875 -26.546875 C 20.234375 -26.484375 20.019531 -26.34375 19.78125 -26.125 C 19.550781 -25.90625 19.285156 -25.800781 18.984375 -25.8125 C 18.691406 -25.832031 18.503906 -25.671875 18.421875 -25.328125 C 18.335938 -24.984375 18.257812 -24.820312 18.1875 -24.84375 C 17.976562 -24.894531 17.5625 -25.285156 16.9375 -26.015625 C 16.3125 -26.742188 15.78125 -27.46875 15.34375 -28.1875 C 15.101562 -28.582031 14.96875 -28.828125 14.9375 -28.921875 C 14.90625 -29.015625 15 -29.128906 15.21875 -29.265625 C 15.46875 -29.441406 15.613281 -29.617188 15.65625 -29.796875 C 15.71875 -30.066406 16.421875 -30.269531 17.765625 -30.40625 C 19.109375 -30.550781 21.550781 -30.648438 25.09375 -30.703125 C 27.96875 -30.753906 30.285156 -30.570312 32.046875 -30.15625 C 33.003906 -29.925781 33.457031 -29.863281 33.40625 -29.96875 C 33.382812 -30.195312 32.859375 -31.4375 31.828125 -33.6875 Z M 31.828125 -33.6875 "/></g></g></g><g fill="#efefef" fill-opacity="1"><g transform="translate(207.803985, 359.918237)"><g><path d="M 27.625 -46.203125 C 28.207031 -46.628906 28.707031 -46.878906 29.125 -46.953125 C 29.550781 -47.035156 30.046875 -46.960938 30.609375 -46.734375 C 31.273438 -46.523438 31.644531 -46.265625 31.71875 -45.953125 C 31.789062 -45.640625 31.601562 -45.128906 31.15625 -44.421875 C 29.914062 -42.304688 29.332031 -41.09375 29.40625 -40.78125 C 29.4375 -40.644531 29.828125 -40.484375 30.578125 -40.296875 C 32.210938 -39.816406 33.382812 -39.285156 34.09375 -38.703125 C 36.03125 -37.128906 37.191406 -35.550781 37.578125 -33.96875 C 37.734375 -33.28125 37.785156 -32.769531 37.734375 -32.4375 C 37.597656 -32.039062 37.289062 -31.460938 36.8125 -30.703125 C 36.34375 -29.953125 36.023438 -29.554688 35.859375 -29.515625 C 35.585938 -29.453125 35.304688 -29.207031 35.015625 -28.78125 C 34.585938 -28.25 34.1875 -28 33.8125 -28.03125 C 33.445312 -28.070312 32.835938 -28.351562 31.984375 -28.875 C 30.953125 -29.539062 30.15625 -29.894531 29.59375 -29.9375 C 29.132812 -29.9375 28.847656 -29.851562 28.734375 -29.6875 C 28.628906 -29.519531 28.644531 -29.160156 28.78125 -28.609375 C 28.875 -28.035156 28.925781 -27.617188 28.9375 -27.359375 C 28.945312 -27.097656 28.992188 -26.628906 29.078125 -25.953125 C 29.171875 -25.285156 29.148438 -24.863281 29.015625 -24.6875 C 28.628906 -24.332031 28.8125 -24.175781 29.5625 -24.21875 C 29.695312 -24.25 29.84375 -24.242188 30 -24.203125 C 30.625 -24.273438 31.53125 -24.253906 32.71875 -24.140625 C 33.90625 -24.035156 34.800781 -23.875 35.40625 -23.65625 C 36.03125 -23.46875 36.414062 -23.242188 36.5625 -22.984375 C 36.71875 -22.734375 36.726562 -22.285156 36.59375 -21.640625 C 36.539062 -21.085938 36.582031 -20.523438 36.71875 -19.953125 C 36.851562 -19.390625 36.878906 -18.972656 36.796875 -18.703125 C 36.722656 -18.429688 36.710938 -17.890625 36.765625 -17.078125 C 36.816406 -16.273438 36.785156 -15.820312 36.671875 -15.71875 C 36.566406 -15.625 36.546875 -15.445312 36.609375 -15.1875 C 36.671875 -14.9375 36.554688 -14.585938 36.265625 -14.140625 C 35.972656 -13.691406 35.675781 -13.050781 35.375 -12.21875 L 34.984375 -10.859375 C 34.953125 -10.828125 34.597656 -10.632812 33.921875 -10.28125 C 33.304688 -9.988281 32.8125 -9.859375 32.4375 -9.890625 C 32.0625 -9.929688 31.609375 -10.179688 31.078125 -10.640625 C 30.617188 -10.992188 30.191406 -11.238281 29.796875 -11.375 C 29.398438 -11.519531 29.128906 -11.503906 28.984375 -11.328125 C 28.878906 -11.128906 28.878906 -10.441406 28.984375 -9.265625 C 29.148438 -7.535156 29.28125 -5.769531 29.375 -3.96875 C 29.445312 -3.113281 29.523438 -2.53125 29.609375 -2.21875 C 29.703125 -1.914062 29.515625 -1.4375 29.046875 -0.78125 C 28.609375 -0.101562 28.242188 0.238281 27.953125 0.25 C 27.660156 0.269531 27.335938 0 26.984375 -0.5625 C 26.546875 -1.21875 25.988281 -2.960938 25.3125 -5.796875 C 24.632812 -8.628906 23.960938 -11.816406 23.296875 -15.359375 C 22.628906 -18.910156 22.242188 -20.703125 22.140625 -20.734375 C 22.046875 -20.765625 21.554688 -20.601562 20.671875 -20.25 C 20.035156 -19.945312 19.457031 -19.609375 18.9375 -19.234375 C 18.414062 -18.859375 18.179688 -18.5625 18.234375 -18.34375 C 18.253906 -18.238281 18.160156 -18.160156 17.953125 -18.109375 C 17.460938 -17.992188 17.550781 -17.472656 18.21875 -16.546875 L 19.875 -14.15625 C 20.550781 -13.132812 21.023438 -12.546875 21.296875 -12.390625 C 21.597656 -12.128906 21.738281 -11.703125 21.71875 -11.109375 C 21.695312 -10.523438 21.523438 -9.976562 21.203125 -9.46875 C 20.890625 -8.9375 20.628906 -8.675781 20.421875 -8.6875 C 20.222656 -8.707031 19.867188 -9.035156 19.359375 -9.671875 C 18.765625 -10.367188 17.894531 -11.976562 16.75 -14.5 C 16.320312 -15.34375 16.015625 -15.867188 15.828125 -16.078125 C 15.617188 -16.316406 15.5625 -16.78125 15.65625 -17.46875 C 15.769531 -17.75 15.8125 -18.023438 15.78125 -18.296875 C 15.757812 -18.554688 16.285156 -19.078125 17.359375 -19.859375 C 18.441406 -20.640625 19.441406 -21.226562 20.359375 -21.625 C 21.191406 -21.976562 21.648438 -22.269531 21.734375 -22.5 C 21.828125 -22.738281 21.765625 -23.546875 21.546875 -24.921875 C 21.398438 -25.859375 21.460938 -26.523438 21.734375 -26.921875 C 21.960938 -27.265625 22.144531 -27.457031 22.28125 -27.5 C 22.414062 -27.550781 22.601562 -27.460938 22.84375 -27.234375 C 23.082031 -27.035156 23.28125 -26.957031 23.4375 -27 C 23.59375 -27.039062 23.988281 -26.816406 24.625 -26.328125 C 25.257812 -25.847656 25.625 -25.671875 25.71875 -25.796875 C 25.8125 -25.929688 25.273438 -28.597656 24.109375 -33.796875 C 22.941406 -39.003906 22.242188 -41.691406 22.015625 -41.859375 C 21.890625 -41.972656 21.832031 -42.082031 21.84375 -42.1875 C 21.851562 -42.300781 21.945312 -42.507812 22.125 -42.8125 C 22.445312 -43.25 23.285156 -43.828125 24.640625 -44.546875 C 25.992188 -45.265625 26.988281 -45.816406 27.625 -46.203125 Z M 27.796875 -44.8125 C 27.804688 -44.882812 27.765625 -44.910156 27.671875 -44.890625 C 27.554688 -44.941406 27.445312 -44.957031 27.34375 -44.9375 C 27.144531 -44.8125 26.679688 -44.566406 25.953125 -44.203125 C 25.222656 -43.847656 24.832031 -43.628906 24.78125 -43.546875 C 24.757812 -43.503906 25.019531 -43.238281 25.5625 -42.75 C 25.851562 -42.457031 26.03125 -42.238281 26.09375 -42.09375 C 26.164062 -41.945312 26.191406 -41.707031 26.171875 -41.375 C 26.128906 -40.957031 26.144531 -40.722656 26.21875 -40.671875 C 26.3125 -40.628906 26.425781 -40.726562 26.5625 -40.96875 C 26.707031 -41.21875 26.851562 -41.523438 27 -41.890625 C 27.144531 -42.253906 27.210938 -42.523438 27.203125 -42.703125 C 27.210938 -43.003906 27.269531 -43.164062 27.375 -43.1875 C 27.476562 -43.207031 27.570312 -43.453125 27.65625 -43.921875 C 27.738281 -44.398438 27.785156 -44.695312 27.796875 -44.8125 Z M 30.90625 -35.96875 C 30.382812 -36.425781 29.757812 -36.859375 29.03125 -37.265625 C 28.300781 -37.671875 27.734375 -37.882812 27.328125 -37.90625 C 27.003906 -37.882812 26.859375 -37.695312 26.890625 -37.34375 C 26.921875 -37 27.15625 -35.898438 27.59375 -34.046875 L 28.265625 -31.203125 L 29.234375 -31.46875 C 29.847656 -31.664062 30.484375 -31.941406 31.140625 -32.296875 C 31.796875 -32.648438 32.175781 -32.929688 32.28125 -33.140625 C 32.425781 -33.429688 32.351562 -33.867188 32.0625 -34.453125 C 31.78125 -35.046875 31.394531 -35.550781 30.90625 -35.96875 Z M 26.140625 -24.546875 C 26.023438 -25.054688 25.90625 -25.351562 25.78125 -25.4375 C 25.707031 -25.445312 25.65625 -25.378906 25.625 -25.234375 C 25.601562 -25.128906 25.613281 -24.988281 25.65625 -24.8125 C 25.75 -24.394531 25.804688 -24.109375 25.828125 -23.953125 C 25.847656 -23.796875 25.953125 -23.71875 26.140625 -23.71875 C 26.222656 -23.707031 26.269531 -23.796875 26.28125 -23.984375 C 26.25 -24.109375 26.203125 -24.296875 26.140625 -24.546875 Z M 28.453125 -22.421875 C 27.515625 -22.421875 26.929688 -22.375 26.703125 -22.28125 C 26.472656 -22.1875 26.359375 -21.976562 26.359375 -21.65625 C 26.359375 -21.320312 26.648438 -19.914062 27.234375 -17.4375 C 27.828125 -14.96875 28.171875 -13.710938 28.265625 -13.671875 C 28.359375 -13.617188 28.679688 -13.796875 29.234375 -14.203125 C 29.796875 -14.609375 30.210938 -14.84375 30.484375 -14.90625 C 31.109375 -15.007812 31.46875 -15.769531 31.5625 -17.1875 C 31.59375 -17.6875 31.566406 -18.484375 31.484375 -19.578125 C 31.410156 -20.671875 31.320312 -21.425781 31.21875 -21.84375 C 31.113281 -22.28125 30.191406 -22.472656 28.453125 -22.421875 Z M 11.21875 -47.71875 C 11.34375 -48.0625 11.601562 -48.234375 12 -48.234375 C 12.613281 -48.234375 13.1875 -48.078125 13.71875 -47.765625 C 14.25 -47.453125 14.515625 -47.132812 14.515625 -46.8125 C 14.453125 -46.613281 14.519531 -45.976562 14.71875 -44.90625 L 14.953125 -43.171875 L 16.484375 -43.625 C 17.179688 -43.90625 17.640625 -44.039062 17.859375 -44.03125 C 18.078125 -44.03125 18.289062 -43.96875 18.5 -43.84375 C 18.800781 -43.625 18.945312 -43.238281 18.9375 -42.6875 C 18.875 -41.882812 18.671875 -41.285156 18.328125 -40.890625 C 17.992188 -40.503906 17.550781 -40.410156 17 -40.609375 C 16.675781 -40.710938 16.363281 -40.796875 16.0625 -40.859375 C 15.875 -40.859375 15.753906 -40.8125 15.703125 -40.71875 C 15.648438 -40.632812 15.632812 -40.488281 15.65625 -40.28125 C 15.65625 -39.925781 15.753906 -39.601562 15.953125 -39.3125 C 16.148438 -39.03125 16.375 -38.921875 16.625 -38.984375 C 16.851562 -39.035156 17.1875 -39.007812 17.625 -38.90625 C 18.0625 -38.8125 18.46875 -38.742188 18.84375 -38.703125 C 19.144531 -38.671875 19.335938 -38.597656 19.421875 -38.484375 C 19.503906 -38.378906 19.515625 -38.226562 19.453125 -38.03125 C 19.390625 -37.832031 19.253906 -37.546875 19.046875 -37.171875 C 18.816406 -36.785156 18.613281 -36.523438 18.4375 -36.390625 C 18.269531 -36.265625 17.984375 -36.15625 17.578125 -36.0625 C 17.097656 -35.945312 16.820312 -35.851562 16.75 -35.78125 C 16.675781 -35.707031 16.648438 -35.453125 16.671875 -35.015625 C 16.734375 -34.523438 16.828125 -34.238281 16.953125 -34.15625 C 17.078125 -34.070312 17.570312 -34.210938 18.4375 -34.578125 C 20.914062 -35.566406 22.328125 -35.9375 22.671875 -35.6875 C 22.972656 -35.507812 23.207031 -35.25 23.375 -34.90625 C 23.550781 -34.570312 23.457031 -34.101562 23.09375 -33.5 C 22.800781 -33.03125 22.503906 -32.734375 22.203125 -32.609375 C 21.910156 -32.492188 21.382812 -32.445312 20.625 -32.46875 C 19.945312 -32.539062 19.210938 -32.484375 18.421875 -32.296875 C 17.640625 -32.109375 17.238281 -31.894531 17.21875 -31.65625 C 17.09375 -29.71875 16.804688 -28.035156 16.359375 -26.609375 C 16.140625 -25.984375 15.84375 -25.28125 15.46875 -24.5 C 15.09375 -23.71875 14.816406 -23.25 14.640625 -23.09375 C 14.304688 -22.832031 13.878906 -22.320312 13.359375 -21.5625 C 12.847656 -20.8125 12.550781 -20.425781 12.46875 -20.40625 C 12.382812 -20.382812 12.171875 -20.101562 11.828125 -19.5625 C 11.484375 -19.03125 10.816406 -18.316406 9.828125 -17.421875 C 9.035156 -16.796875 8.195312 -16.003906 7.3125 -15.046875 C 6.4375 -14.097656 5.972656 -13.523438 5.921875 -13.328125 C 5.835938 -13.203125 5.742188 -13.128906 5.640625 -13.109375 C 5.367188 -13.046875 6 -14.34375 7.53125 -17 C 8.476562 -18.664062 9.328125 -20.242188 10.078125 -21.734375 C 10.828125 -23.222656 11.179688 -24.050781 11.140625 -24.21875 C 11.109375 -24.363281 11.171875 -24.507812 11.328125 -24.65625 C 11.535156 -24.957031 11.851562 -26.265625 12.28125 -28.578125 C 12.375 -29.109375 12.390625 -29.507812 12.328125 -29.78125 C 12.273438 -30 12.203125 -30.113281 12.109375 -30.125 C 12.015625 -30.132812 11.796875 -30.082031 11.453125 -29.96875 C 10.972656 -29.78125 10.539062 -29.519531 10.15625 -29.1875 C 9.78125 -28.863281 9.476562 -28.675781 9.25 -28.625 C 9.03125 -28.570312 8.800781 -28.351562 8.5625 -27.96875 C 8.1875 -27.257812 7.535156 -27.03125 6.609375 -27.28125 C 6.296875 -27.363281 6.113281 -27.429688 6.0625 -27.484375 C 6.019531 -27.535156 6.046875 -27.664062 6.140625 -27.875 C 6.265625 -28.15625 6.539062 -28.492188 6.96875 -28.890625 C 7.394531 -29.285156 7.710938 -29.503906 7.921875 -29.546875 C 8.085938 -29.585938 8.84375 -30.015625 10.1875 -30.828125 C 11.539062 -31.640625 12.265625 -32.09375 12.359375 -32.1875 C 12.410156 -32.238281 12.425781 -32.535156 12.40625 -33.078125 C 12.394531 -33.617188 12.363281 -33.898438 12.3125 -33.921875 C 12.226562 -33.941406 11.867188 -33.796875 11.234375 -33.484375 C 10.609375 -33.171875 10.050781 -33.0625 9.5625 -33.15625 C 8.070312 -33.457031 8.40625 -34.332031 10.5625 -35.78125 C 11.519531 -36.375 12.015625 -36.789062 12.046875 -37.03125 C 12.078125 -37.28125 12.046875 -37.832031 11.953125 -38.6875 L 11.75 -39.953125 L 10.953125 -39.640625 C 9.472656 -39.003906 8.4375 -38.320312 7.84375 -37.59375 C 7.46875 -37.0625 7.082031 -36.832031 6.6875 -36.90625 C 6.289062 -36.976562 6.132812 -37.273438 6.21875 -37.796875 C 6.238281 -38.171875 6.75 -38.734375 7.75 -39.484375 C 8.757812 -40.234375 9.910156 -40.921875 11.203125 -41.546875 C 11.460938 -41.660156 11.613281 -41.785156 11.65625 -41.921875 C 11.695312 -42.054688 11.664062 -42.347656 11.5625 -42.796875 C 11.425781 -43.367188 11.316406 -44.242188 11.234375 -45.421875 C 11.148438 -46.609375 11.144531 -47.375 11.21875 -47.71875 Z M 11.21875 -47.71875 "/></g></g></g><g fill="#efefef" fill-opacity="1"><g transform="translate(280.777505, 336.74728)"><g><path d="M -7.046875 -51.234375 C -6.660156 -51.984375 -5.75 -52.3125 -4.3125 -52.21875 C -2.875 -52.125 -1.992188 -51.675781 -1.671875 -50.875 C -1.460938 -50.457031 -1.738281 -49.25 -2.5 -47.25 C -2.789062 -46.457031 -2.910156 -45.988281 -2.859375 -45.84375 C -2.804688 -45.695312 -2.367188 -45.601562 -1.546875 -45.5625 C -1.046875 -45.570312 -0.664062 -45.535156 -0.40625 -45.453125 C -0.15625 -45.378906 0.144531 -45.179688 0.5 -44.859375 C 0.851562 -44.503906 1.09375 -44.300781 1.21875 -44.25 C 1.351562 -44.195312 1.503906 -44.242188 1.671875 -44.390625 C 1.941406 -44.617188 2.164062 -44.925781 2.34375 -45.3125 C 2.5 -45.726562 2.773438 -46.160156 3.171875 -46.609375 C 3.578125 -47.066406 3.953125 -47.398438 4.296875 -47.609375 C 4.640625 -47.796875 5.1875 -47.773438 5.9375 -47.546875 C 7.09375 -47.171875 7.753906 -46.550781 7.921875 -45.6875 C 8.046875 -45.269531 7.890625 -44.804688 7.453125 -44.296875 C 6.421875 -43.148438 5.582031 -42.46875 4.9375 -42.25 C 4.4375 -42.0625 4.238281 -41.78125 4.34375 -41.40625 C 4.457031 -41.039062 5.007812 -40.257812 6 -39.0625 C 7.195312 -37.570312 7.847656 -36.820312 7.953125 -36.8125 C 8.054688 -36.800781 8.332031 -37.078125 8.78125 -37.640625 C 9.226562 -38.203125 10.296875 -39.335938 11.984375 -41.046875 C 13.671875 -42.765625 14.847656 -43.976562 15.515625 -44.6875 C 17.128906 -46.550781 18.273438 -47.65625 18.953125 -48 C 19.390625 -48.238281 20.171875 -48.296875 21.296875 -48.171875 C 22.429688 -48.046875 23.128906 -47.828125 23.390625 -47.515625 C 23.660156 -47.210938 23.742188 -46.96875 23.640625 -46.78125 C 23.535156 -46.59375 23.597656 -46.363281 23.828125 -46.09375 C 24.046875 -45.832031 24.046875 -45.53125 23.828125 -45.1875 C 23.617188 -44.84375 23.125 -44.425781 22.34375 -43.9375 C 21.4375 -43.394531 20.5 -42.796875 19.53125 -42.140625 C 18.5625 -41.492188 17.625 -40.878906 16.71875 -40.296875 C 15.988281 -39.804688 14.894531 -38.941406 13.4375 -37.703125 C 11.976562 -36.472656 11.039062 -35.613281 10.625 -35.125 C 10.382812 -34.820312 10.25 -34.597656 10.21875 -34.453125 C 10.195312 -34.316406 10.332031 -34.03125 10.625 -33.59375 C 11 -33.03125 12.523438 -31.101562 15.203125 -27.8125 C 17.878906 -24.53125 19.429688 -22.523438 19.859375 -21.796875 C 20.285156 -21.078125 20.71875 -20.460938 21.15625 -19.953125 C 21.644531 -19.359375 21.976562 -18.773438 22.15625 -18.203125 C 22.34375 -17.640625 22.453125 -16.816406 22.484375 -15.734375 C 22.484375 -14.429688 22.445312 -13.519531 22.375 -13 C 22.300781 -12.476562 22.148438 -11.863281 21.921875 -11.15625 L 21.515625 -9.921875 L 20.765625 -9.90625 C 20.421875 -9.875 20.101562 -9.898438 19.8125 -9.984375 C 19.53125 -10.078125 18.992188 -10.296875 18.203125 -10.640625 C 17.734375 -10.804688 17.046875 -10.921875 16.140625 -10.984375 C 15.234375 -11.046875 14.695312 -11.007812 14.53125 -10.875 C 14.445312 -10.800781 14.015625 -10.800781 13.234375 -10.875 C 12.453125 -10.945312 11.65625 -10.921875 10.84375 -10.796875 C 10.03125 -10.671875 9.359375 -10.675781 8.828125 -10.8125 C 8.078125 -11.019531 7.863281 -11.257812 8.1875 -11.53125 C 8.519531 -11.8125 9.613281 -12.273438 11.46875 -12.921875 C 13.332031 -13.628906 14.457031 -14.144531 14.84375 -14.46875 C 15.238281 -14.800781 15.597656 -15.378906 15.921875 -16.203125 C 16.085938 -16.710938 16.175781 -17.113281 16.1875 -17.40625 C 16.195312 -17.695312 16.128906 -18.0625 15.984375 -18.5 C 15.753906 -19.207031 15.273438 -20.070312 14.546875 -21.09375 C 13.898438 -21.96875 12.476562 -23.722656 10.28125 -26.359375 C 8.09375 -29.003906 6.929688 -30.351562 6.796875 -30.40625 C 6.640625 -30.46875 6.28125 -30.144531 5.71875 -29.4375 C 5.164062 -28.726562 4.554688 -28.003906 3.890625 -27.265625 C 2.484375 -25.546875 1.023438 -23.242188 -0.484375 -20.359375 C -1.148438 -19.035156 -1.578125 -18.144531 -1.765625 -17.6875 C -1.960938 -17.226562 -2.035156 -16.832031 -1.984375 -16.5 C -1.898438 -15.875 -2.4375 -15.421875 -3.59375 -15.140625 C -4.46875 -14.910156 -5.367188 -14.929688 -6.296875 -15.203125 C -6.921875 -15.335938 -7.332031 -15.492188 -7.53125 -15.671875 C -7.726562 -15.859375 -7.804688 -16.144531 -7.765625 -16.53125 C -7.703125 -17.320312 -7.003906 -18.546875 -5.671875 -20.203125 C -4.773438 -21.328125 -4.207031 -22.128906 -3.96875 -22.609375 C -3.664062 -23.234375 -1.679688 -25.726562 1.984375 -30.09375 C 3.710938 -32.207031 4.578125 -33.265625 4.578125 -33.265625 C 4.578125 -33.265625 3.984375 -33.988281 2.796875 -35.4375 L 0.984375 -37.578125 L 0.421875 -37.09375 C 0.046875 -36.78125 -0.410156 -36.144531 -0.953125 -35.1875 C -1.492188 -34.238281 -1.882812 -33.367188 -2.125 -32.578125 C -2.21875 -32.296875 -2.304688 -32.117188 -2.390625 -32.046875 C -2.472656 -31.984375 -2.71875 -31.945312 -3.125 -31.9375 C -3.601562 -31.894531 -4.140625 -31.976562 -4.734375 -32.1875 C -5.328125 -32.40625 -5.679688 -32.628906 -5.796875 -32.859375 C -5.835938 -33.148438 -5.398438 -34.128906 -4.484375 -35.796875 C -3.566406 -37.472656 -2.628906 -39.003906 -1.671875 -40.390625 C -1.554688 -40.523438 -1.828125 -40.925781 -2.484375 -41.59375 C -3.148438 -42.257812 -3.609375 -42.601562 -3.859375 -42.625 C -4.109375 -42.644531 -4.300781 -42.535156 -4.4375 -42.296875 C -4.582031 -42.066406 -4.90625 -41.445312 -5.40625 -40.4375 C -6.070312 -38.9375 -6.617188 -37.851562 -7.046875 -37.1875 C -7.472656 -36.519531 -7.929688 -35.789062 -8.421875 -35 C -8.910156 -34.21875 -9.269531 -33.820312 -9.5 -33.8125 C -9.59375 -33.820312 -9.664062 -33.90625 -9.71875 -34.0625 C -9.78125 -34.226562 -9.78125 -34.472656 -9.71875 -34.796875 C -9.664062 -35.117188 -9.597656 -35.546875 -9.515625 -36.078125 C -9.429688 -36.617188 -9.304688 -37.25 -9.140625 -37.96875 C -8.847656 -39.269531 -8.632812 -40.4375 -8.5 -41.46875 L -7.984375 -44.703125 C -7.773438 -45.835938 -7.597656 -47.164062 -7.453125 -48.6875 C -7.304688 -50.207031 -7.171875 -51.054688 -7.046875 -51.234375 Z M -7.046875 -51.234375 "/></g></g></g></svg>