<svg xmlns="http://www.w3.org/2000/svg" xmlns:xlink="http://www.w3.org/1999/xlink" width="499" zoomAndPan="magnify" viewBox="0 0 374.25 109.499999" height="146" preserveAspectRatio="xMidYMid meet" version="1.0"><defs><g/><clipPath id="b92a4324bf"><path d="M 89.484375 9.585938 L 108.148438 9.585938 L 108.148438 39.449219 L 89.484375 39.449219 Z M 89.484375 9.585938 " clip-rule="nonzero"/></clipPath></defs><g fill="#003456" fill-opacity="1"><g transform="translate(38.056755, 77.362855)"><g><path d="M 18.9375 -24 C 18.9375 -22.082031 19.585938 -20.472656 20.890625 -19.171875 C 22.191406 -17.878906 23.796875 -17.234375 25.703125 -17.234375 C 27.523438 -17.234375 29.070312 -17.8125 30.34375 -18.96875 C 31.625 -20.132812 32.335938 -21.609375 32.484375 -23.390625 L 50.9375 -23.390625 C 50.894531 -19.960938 50.203125 -16.753906 48.859375 -13.765625 C 47.515625 -10.785156 45.691406 -8.15625 43.390625 -5.875 C 41.085938 -3.601562 38.429688 -1.828125 35.421875 -0.546875 C 32.410156 0.734375 29.195312 1.375 25.78125 1.375 C 22.3125 1.375 19.050781 0.710938 16 -0.609375 C 12.945312 -1.929688 10.253906 -3.753906 7.921875 -6.078125 C 5.597656 -8.410156 3.785156 -11.101562 2.484375 -14.15625 C 1.191406 -17.207031 0.546875 -20.46875 0.546875 -23.9375 C 0.546875 -27.445312 1.191406 -30.726562 2.484375 -33.78125 C 3.785156 -36.832031 5.597656 -39.507812 7.921875 -41.8125 C 10.253906 -44.113281 12.945312 -45.925781 16 -47.25 C 19.050781 -48.570312 22.3125 -49.234375 25.78125 -49.234375 C 29.195312 -49.234375 32.410156 -48.59375 35.421875 -47.3125 C 38.429688 -46.039062 41.085938 -44.273438 43.390625 -42.015625 C 45.691406 -39.753906 47.515625 -37.128906 48.859375 -34.140625 C 50.203125 -31.160156 50.894531 -27.960938 50.9375 -24.546875 L 32.546875 -24.546875 C 32.410156 -26.328125 31.691406 -27.820312 30.390625 -29.03125 C 29.085938 -30.238281 27.523438 -30.84375 25.703125 -30.84375 C 23.796875 -30.84375 22.191406 -30.179688 20.890625 -28.859375 C 19.585938 -27.535156 18.9375 -25.914062 18.9375 -24 Z M 18.9375 -24 "/></g></g></g><g fill="#003456" fill-opacity="1"><g transform="translate(89.68385, 77.362855)"><g><path d="M 0.6875 -38.359375 L 17.5 -38.359375 L 17.5 0 L 0.6875 0 Z M 0.6875 -38.359375 "/></g></g></g><g fill="#003456" fill-opacity="1"><g transform="translate(107.872999, 77.362855)"><g><path d="M 18.59375 0 C 15.082031 0 11.972656 -0.644531 9.265625 -1.9375 C 6.554688 -3.238281 4.4375 -5.1875 2.90625 -7.78125 C 1.375 -10.382812 0.609375 -13.648438 0.609375 -17.578125 L 0.609375 -47.9375 L 17.4375 -47.9375 L 17.4375 -38.359375 L 29.125 -38.359375 L 29.125 -22.5 L 17.4375 -22.5 L 17.4375 -16.8125 C 17.4375 -16.226562 17.734375 -15.9375 18.328125 -15.9375 L 29.125 -15.9375 L 29.125 0 Z M 18.59375 0 "/></g></g></g><g fill="#003456" fill-opacity="1"><g transform="translate(137.755174, 77.362855)"><g><path d="M 30.15625 9.5 L 13.203125 9.5 L 16.953125 -0.140625 L 16.484375 -0.140625 L 0.34375 -38.359375 L 18.328125 -38.359375 L 27.140625 -14.421875 L 28.171875 -14.421875 L 25.78125 -20.921875 L 31.71875 -38.359375 L 49.78125 -38.359375 Z M 30.15625 9.5 "/></g></g></g><g fill="#003456" fill-opacity="1"><g transform="translate(187.877902, 77.362855)"><g><path d="M 0.6875 0 L 0.6875 -47.859375 L 18.46875 -47.859375 L 18.46875 -31.859375 L 28.515625 -31.859375 L 28.515625 -47.859375 L 46.296875 -47.859375 L 46.296875 0 L 28.515625 0 L 28.515625 -16 L 18.46875 -16 L 18.46875 0 Z M 0.6875 0 "/></g></g></g><g fill="#003456" fill-opacity="1"><g transform="translate(234.923533, 77.362855)"><g><path d="M 22.421875 -17.296875 C 23.429688 -17.847656 24.023438 -18.613281 24.203125 -19.59375 C 24.390625 -20.570312 24.171875 -21.457031 23.546875 -22.25 C 22.929688 -23.050781 21.921875 -23.453125 20.515625 -23.453125 C 19.328125 -23.492188 18.425781 -23.160156 17.8125 -22.453125 C 17.195312 -21.753906 16.875 -20.9375 16.84375 -20 C 16.820312 -19.0625 17.097656 -18.226562 17.671875 -17.5 C 18.242188 -16.769531 19.144531 -16.40625 20.375 -16.40625 L 39.71875 -16.40625 L 39.71875 0 L 20.375 0 C 17.632812 0 15.078125 -0.507812 12.703125 -1.53125 C 10.335938 -2.5625 8.242188 -3.988281 6.421875 -5.8125 C 4.597656 -7.632812 3.171875 -9.726562 2.140625 -12.09375 C 1.117188 -14.46875 0.609375 -17.023438 0.609375 -19.765625 C 0.609375 -23.359375 1.414062 -26.632812 3.03125 -29.59375 C 4.65625 -32.5625 6.957031 -34.945312 9.9375 -36.75 C 12.925781 -38.550781 16.472656 -39.472656 20.578125 -39.515625 C 22.722656 -39.515625 24.878906 -39.3125 27.046875 -38.90625 C 29.210938 -38.5 31.25 -37.722656 33.15625 -36.578125 C 35.070312 -35.441406 36.671875 -33.753906 37.953125 -31.515625 C 38.492188 -30.554688 38.890625 -29.414062 39.140625 -28.09375 C 39.390625 -26.78125 39.476562 -25.425781 39.40625 -24.03125 C 39.34375 -22.644531 39.0625 -21.347656 38.5625 -20.140625 C 38.0625 -18.929688 37.285156 -17.984375 36.234375 -17.296875 Z M 22.421875 -17.296875 "/></g></g></g><g fill="#003456" fill-opacity="1"><g transform="translate(275.267896, 77.362855)"><g><path d="M 0.6875 -47.9375 L 17.5 -47.9375 L 17.5 0 L 0.6875 0 Z M 0.6875 -47.9375 "/></g></g></g><g fill="#003456" fill-opacity="1"><g transform="translate(293.457045, 77.362855)"><g><path d="M 0.609375 9.5 L 0.609375 -19.21875 C 0.609375 -22.039062 1.132812 -24.671875 2.1875 -27.109375 C 3.238281 -29.546875 4.695312 -31.695312 6.5625 -33.5625 C 8.4375 -35.4375 10.601562 -36.894531 13.0625 -37.9375 C 15.519531 -38.988281 18.140625 -39.515625 20.921875 -39.515625 C 23.742188 -39.515625 26.375 -38.988281 28.8125 -37.9375 C 31.257812 -36.894531 33.414062 -35.4375 35.28125 -33.5625 C 37.144531 -31.695312 38.601562 -29.546875 39.65625 -27.109375 C 40.707031 -24.671875 41.234375 -22.039062 41.234375 -19.21875 C 41.234375 -16.4375 40.707031 -13.8125 39.65625 -11.34375 C 38.601562 -8.882812 37.144531 -6.71875 35.28125 -4.84375 C 33.414062 -2.976562 31.257812 -1.519531 28.8125 -0.46875 C 26.375 0.570312 23.742188 1.09375 20.921875 1.09375 L 18.390625 1.09375 L 18.390625 -15.71875 L 20.921875 -15.71875 C 21.878906 -15.71875 22.695312 -16.0625 23.375 -16.75 C 24.0625 -17.4375 24.40625 -18.257812 24.40625 -19.21875 C 24.40625 -20.175781 24.0625 -20.992188 23.375 -21.671875 C 22.695312 -22.359375 21.878906 -22.703125 20.921875 -22.703125 C 19.960938 -22.703125 19.140625 -22.359375 18.453125 -21.671875 C 17.773438 -20.992188 17.4375 -20.175781 17.4375 -19.21875 L 17.4375 9.5 Z M 0.609375 9.5 "/></g></g></g><g clip-path="url(#b92a4324bf)"><path fill="#c92a2a" d="M 98.847656 39.449219 C 98.160156 36.121094 96.945312 33.351562 95.472656 30.785156 C 94.382812 28.882812 93.117188 27.125 91.945312 25.28125 C 91.554688 24.664062 91.21875 24.011719 90.84375 23.375 C 90.09375 22.09375 89.484375 20.613281 89.523438 18.6875 C 89.5625 16.808594 90.113281 15.304688 90.910156 14.070312 C 92.21875 12.042969 94.414062 10.382812 97.359375 9.945312 C 99.769531 9.585938 102.027344 10.191406 103.628906 11.113281 C 104.9375 11.863281 105.949219 12.871094 106.71875 14.054688 C 107.523438 15.289062 108.078125 16.75 108.125 18.65625 C 108.148438 19.632812 107.984375 20.535156 107.757812 21.285156 C 107.523438 22.046875 107.152344 22.679688 106.820312 23.355469 C 106.171875 24.679688 105.363281 25.890625 104.546875 27.105469 C 102.121094 30.71875 99.84375 34.402344 98.847656 39.449219 Z M 98.847656 39.449219 " fill-opacity="1" fill-rule="evenodd"/></g><path fill="#ffffff" d="M 102.082031 18.667969 C 102.082031 19.09375 102 19.503906 101.835938 19.894531 C 101.667969 20.289062 101.433594 20.632812 101.128906 20.933594 C 100.824219 21.234375 100.46875 21.46875 100.070312 21.628906 C 99.671875 21.792969 99.257812 21.875 98.824219 21.875 C 98.390625 21.875 97.976562 21.792969 97.578125 21.628906 C 97.175781 21.46875 96.824219 21.234375 96.519531 20.933594 C 96.214844 20.632812 95.976562 20.289062 95.8125 19.894531 C 95.648438 19.503906 95.566406 19.09375 95.566406 18.667969 C 95.566406 18.242188 95.648438 17.835938 95.8125 17.441406 C 95.976562 17.050781 96.214844 16.703125 96.519531 16.402344 C 96.824219 16.101562 97.175781 15.871094 97.578125 15.707031 C 97.976562 15.542969 98.390625 15.464844 98.824219 15.464844 C 99.257812 15.464844 99.671875 15.542969 100.070312 15.707031 C 100.46875 15.871094 100.824219 16.101562 101.128906 16.402344 C 101.433594 16.703125 101.667969 17.050781 101.835938 17.441406 C 102 17.835938 102.082031 18.242188 102.082031 18.667969 Z M 102.082031 18.667969 " fill-opacity="1" fill-rule="nonzero"/></svg>